<svg width="500" height="94" fill="none" xmlns="http://www.w3.org/2000/svg"><path fill-rule="evenodd" clip-rule="evenodd" d="M325.323 8.179h10.638v61.635h-10.638V8.18ZM138.44 64.025a15.306 15.306 0 0 0 6.579 4.934 26.362 26.362 0 0 0 10.142 1.747 25.639 25.639 0 0 0 9.847-1.773 15.71 15.71 0 0 0 6.729-4.998 12.1 12.1 0 0 0 2.435-7.495v-.044a10.477 10.477 0 0 0-2.991-7.838c-1.994-1.95-5.34-3.45-10.04-4.505l-7.518-1.665a11.427 11.427 0 0 1-4.977-2.136 4.2 4.2 0 0 1-1.474-3.247v-.042a4.735 4.735 0 0 1 .919-2.904 5.881 5.881 0 0 1 2.651-1.923 11.096 11.096 0 0 1 4.08-.683 8.895 8.895 0 0 1 5.852 1.772 6.75 6.75 0 0 1 2.478 4.506l.043.342h9.911l-.042-.47a13.171 13.171 0 0 0-2.372-7.091 15.227 15.227 0 0 0-6.215-5.035 22.638 22.638 0 0 0-9.655-1.88 24.091 24.091 0 0 0-9.527 1.752 14.843 14.843 0 0 0-6.362 4.869 12.027 12.027 0 0 0-2.264 7.261v.042a11.043 11.043 0 0 0 3.269 8.244c2.177 2.136 5.431 3.674 9.762 4.613l7.519 1.666c2.363.542 4 1.232 4.912 2.072a4.243 4.243 0 0 1 1.368 3.268v.042a4.474 4.474 0 0 1-1.005 2.905 6.147 6.147 0 0 1-2.84 1.879c-1.436.46-2.937.676-4.444.641a10.596 10.596 0 0 1-6.301-1.623 7.16 7.16 0 0 1-2.84-4.571l-.089-.384h-10.466l.042.384a15.198 15.198 0 0 0 2.884 7.368Zm43.212-4.29a18.882 18.882 0 0 0 7.498 8.116 22.733 22.733 0 0 0 11.682 2.866c2.668.04 5.325-.356 7.864-1.175a19.629 19.629 0 0 0 5.981-3.18 16.83 16.83 0 0 0 4.016-4.505 16.68 16.68 0 0 0 2.05-5.104l.089-.47h-9.912l-.088.3a7.431 7.431 0 0 1-1.816 2.86 9.888 9.888 0 0 1-3.31 2.158 12.083 12.083 0 0 1-4.657.833 11.532 11.532 0 0 1-6.11-1.56 10.226 10.226 0 0 1-3.951-4.484 16.378 16.378 0 0 1-1.394-6.605h31.703v-3.418a26.603 26.603 0 0 0-2.542-11.96 18.842 18.842 0 0 0-7.263-7.965 21.256 21.256 0 0 0-11.171-2.841c-3.956-.1-7.858.922-11.257 2.948a19.756 19.756 0 0 0-7.391 8.264 27.792 27.792 0 0 0-2.627 12.451v.042a27.663 27.663 0 0 0 2.606 12.43Zm8.063-17.041h21.274a17.588 17.588 0 0 0-1.267-4.865 9.91 9.91 0 0 0-3.76-4.417 10.295 10.295 0 0 0-5.511-1.473 10.477 10.477 0 0 0-5.618 1.517 10.125 10.125 0 0 0-3.845 4.505 17.166 17.166 0 0 0-1.273 4.733Zm43.821 26.157a12.901 12.901 0 0 1-5.34-4.827 13.31 13.31 0 0 1-1.902-7.11v-.09a11.475 11.475 0 0 1 4.506-9.546c3.004-2.35 7.241-3.68 12.71-3.994l11.837-.73v-3.111a6.992 6.992 0 0 0-2.157-5.404c-1.439-1.323-3.511-1.985-6.217-1.986a10.23 10.23 0 0 0-6.023 1.602 6.703 6.703 0 0 0-2.82 4.122l-.088.384h-9.826l.042-.513a13.875 13.875 0 0 1 2.692-7.196 15.801 15.801 0 0 1 6.515-5.019 24.378 24.378 0 0 1 9.89-1.837c3.378-.08 6.735.56 9.847 1.88a15.034 15.034 0 0 1 6.449 5.253 13.824 13.824 0 0 1 2.286 7.945v31.138h-10.594V62.85h-.257a14.441 14.441 0 0 1-3.332 4.1 14.795 14.795 0 0 1-4.683 2.692 16.582 16.582 0 0 1-5.617.939 17.4 17.4 0 0 1-7.918-1.73Zm11.469-18.604 10.342-.643v3.422a8.555 8.555 0 0 1-1.414 4.826 9.881 9.881 0 0 1-3.823 3.375 11.854 11.854 0 0 1-5.49 1.236 9.068 9.068 0 0 1-5.617-1.602 5.198 5.198 0 0 1-2.115-4.378v-.042a5.177 5.177 0 0 1 2.093-4.314 10.858 10.858 0 0 1 6.024-1.88Zm40.118-25.709h-10.595l.008 60.223h10.595V62.165h.256a15.015 15.015 0 0 0 3.376 4.57 14.634 14.634 0 0 0 4.848 2.947 16.953 16.953 0 0 0 5.96 1.026 17.046 17.046 0 0 0 9.846-2.84 18.342 18.342 0 0 0 6.45-8.116 31.38 31.38 0 0 0 2.285-12.537v-.043c.104-4.311-.673-8.6-2.285-12.6a18.22 18.22 0 0 0-6.494-8.137 17.398 17.398 0 0 0-9.975-2.84 16.032 16.032 0 0 0-5.919 1.067 14.398 14.398 0 0 0-4.742 3.012 16.133 16.133 0 0 0-3.357 4.681h-.257V24.54Zm20.869 30.391a11.442 11.442 0 0 1-3.823 5.062 9.783 9.783 0 0 1-5.893 1.798 9.761 9.761 0 0 1-5.81-1.794 11.875 11.875 0 0 1-3.952-5.062 19.092 19.092 0 0 1-1.431-7.71v-.043a19.209 19.209 0 0 1 1.431-7.752 11.874 11.874 0 0 1 3.952-5.062 9.76 9.76 0 0 1 5.807-1.8 9.97 9.97 0 0 1 5.874 1.752 11.08 11.08 0 0 1 3.845 5.019 20.566 20.566 0 0 1 1.346 7.838v.044a20.167 20.167 0 0 1-1.346 7.71Zm39.088 9.095a12.898 12.898 0 0 0 5.341 4.827 17.391 17.391 0 0 0 7.921 1.73 16.583 16.583 0 0 0 5.618-.94 14.789 14.789 0 0 0 4.678-2.691 14.441 14.441 0 0 0 3.332-4.1h.257v6.962h10.594V38.674a13.823 13.823 0 0 0-2.285-7.945 15.037 15.037 0 0 0-6.45-5.253 23.784 23.784 0 0 0-9.847-1.88 24.378 24.378 0 0 0-9.89 1.837 15.8 15.8 0 0 0-6.515 5.019 13.875 13.875 0 0 0-2.692 7.196l-.042.513h9.826l.088-.384a6.703 6.703 0 0 1 2.82-4.122 10.23 10.23 0 0 1 6.023-1.602c2.706 0 4.778.663 6.217 1.986a6.987 6.987 0 0 1 2.157 5.404v3.11l-11.837.731c-5.469.314-9.706 1.645-12.71 3.994a11.48 11.48 0 0 0-4.506 9.547v.088a13.31 13.31 0 0 0 1.902 7.111Zm27.151-14.42-10.342.643c-2.15.016-4.247.67-6.024 1.88a5.189 5.189 0 0 0-2.093 4.313v.043a5.194 5.194 0 0 0 2.115 4.378 9.067 9.067 0 0 0 5.617 1.602 11.86 11.86 0 0 0 5.491-1.236 9.895 9.895 0 0 0 3.823-3.375 8.562 8.562 0 0 0 1.413-4.826v-3.422Zm19.181-25.07h10.595v7.09h.256a13.755 13.755 0 0 1 5.233-5.852 15.933 15.933 0 0 1 8.608-2.179c4.984 0 8.837 1.51 11.557 4.528 2.72 3.02 4.079 7.148 4.079 12.387v29.301h-10.637V42.647c0-3.218-.755-5.703-2.264-7.454-1.51-1.752-3.774-2.627-6.793-2.627a9.934 9.934 0 0 0-5.301 1.388 9.337 9.337 0 0 0-3.503 3.845 12.583 12.583 0 0 0-1.237 5.742v26.269H391.41l.002-45.274Zm49.555 35.202a18.89 18.89 0 0 0 7.499 8.115 22.736 22.736 0 0 0 11.683 2.866c2.667.04 5.324-.356 7.863-1.175a19.62 19.62 0 0 0 5.981-3.18 16.738 16.738 0 0 0 6.067-9.61l.088-.47h-9.911l-.089.3a7.44 7.44 0 0 1-1.815 2.861 9.89 9.89 0 0 1-3.312 2.158 12.074 12.074 0 0 1-4.656.833 11.527 11.527 0 0 1-6.109-1.56 10.22 10.22 0 0 1-3.952-4.484 16.395 16.395 0 0 1-1.395-6.605h31.704v-3.418a26.616 26.616 0 0 0-2.542-11.96 18.834 18.834 0 0 0-7.263-7.965 21.256 21.256 0 0 0-11.171-2.841c-3.955-.1-7.858.922-11.257 2.948a19.747 19.747 0 0 0-7.39 8.264 27.778 27.778 0 0 0-2.628 12.451v.042a27.677 27.677 0 0 0 2.605 12.43Zm8.064-17.042h21.274a17.52 17.52 0 0 0-1.268-4.865 9.907 9.907 0 0 0-3.759-4.417 10.297 10.297 0 0 0-5.511-1.473 10.477 10.477 0 0 0-5.618 1.517 10.127 10.127 0 0 0-3.845 4.505 17.166 17.166 0 0 0-1.273 4.733Z" fill="#00BDA5"/><path d="M84.732 50.475H53.355a3.167 3.167 0 0 0-3.198 2.78 3.165 3.165 0 0 0 2.309 3.554l23.307 6.67a5.839 5.839 0 0 1 4.024 4.01l6.846 23.636a3.16 3.16 0 0 0 3.068 2.334c.163 0 .326-.012.488-.035a3.166 3.166 0 0 0 2.774-3.196V58.715a8.245 8.245 0 0 0-8.24-8.24ZM84.731 0H53.354a3.16 3.16 0 0 0-3.197 2.78 3.165 3.165 0 0 0 2.308 3.555l23.307 6.668a5.839 5.839 0 0 1 4.024 4.011l6.846 23.637a3.16 3.16 0 0 0 3.067 2.332c.163 0 .327-.012.489-.034a3.166 3.166 0 0 0 2.774-3.197V8.24A8.246 8.246 0 0 0 84.732 0ZM34.615 0H3.236A3.166 3.166 0 0 0 .04 2.78a3.165 3.165 0 0 0 2.308 3.555l23.308 6.668a5.838 5.838 0 0 1 4.023 4.011l6.847 23.637a3.16 3.16 0 0 0 3.067 2.332c.163 0 .326-.012.488-.034a3.168 3.168 0 0 0 2.775-3.197V8.24A8.245 8.245 0 0 0 34.615 0Z" fill="#00BDA5"/></svg>